<?xml version="1.0" encoding="UTF-8"?><svg id="e" xmlns="http://www.w3.org/2000/svg" xmlns:xlink="http://www.w3.org/1999/xlink" viewBox="0 0 116.81 116.81"><defs><style>.k{fill:url(#g);}.k,.l,.m,.n,.o,.p{stroke-width:0px;}.l{fill:url(#i);}.m{fill:#08232b;}.n{fill:url(#h);}.o{fill:url(#f);}.p{fill:#265d66;}</style><linearGradient id="f" x1="81.81" y1="99.13" x2="94.41" y2="86.54" gradientUnits="userSpaceOnUse"><stop offset=".16" stop-color="#407788"/><stop offset=".44" stop-color="#427989"/><stop offset=".59" stop-color="#4a8090"/><stop offset=".71" stop-color="#578b9a"/><stop offset=".81" stop-color="#6b9ca9"/><stop offset=".9" stop-color="#84b2bd"/><stop offset=".98" stop-color="#a2cdd5"/><stop offset="1" stop-color="#aad4db"/></linearGradient><radialGradient id="g" cx="36.53" cy="36.47" fx="36.53" fy="36.47" r="25.04" gradientUnits="userSpaceOnUse"><stop offset=".63" stop-color="#aad4db"/><stop offset=".7" stop-color="#a6d0d7"/><stop offset=".77" stop-color="#9ac6ce"/><stop offset=".84" stop-color="#86b4bf"/><stop offset=".92" stop-color="#6a9ca9"/><stop offset=".99" stop-color="#477d8d"/><stop offset="1" stop-color="#407788"/></radialGradient><radialGradient id="h" cx="-42.08" cy="170.8" fx="-49.53" fy="156.34" r="18.13" gradientTransform="translate(18.68 -189.07) rotate(-18.37) scale(1.29)" gradientUnits="userSpaceOnUse"><stop offset="0" stop-color="#fff"/><stop offset=".09" stop-color="#f3f6f7" stop-opacity=".94"/><stop offset=".28" stop-color="#d6e1e5" stop-opacity=".79"/><stop offset=".53" stop-color="#a6bfc7" stop-opacity=".53"/><stop offset=".84" stop-color="#64919e" stop-opacity=".19"/><stop offset="1" stop-color="#407788" stop-opacity="0"/></radialGradient><radialGradient id="i" cx="-145.69" cy="-3.11" fx="-145.69" fy="-13.96" r="13.6" gradientTransform="translate(220.87 71.84) rotate(13.52) scale(1.29 .76)" gradientUnits="userSpaceOnUse"><stop offset="0" stop-color="#fff"/><stop offset=".06" stop-color="#f9fcfd" stop-opacity=".94"/><stop offset=".18" stop-color="#ebf5f7" stop-opacity=".79"/><stop offset=".34" stop-color="#d5ebef" stop-opacity=".53"/><stop offset=".54" stop-color="#b6dde4" stop-opacity=".19"/><stop offset=".64" stop-color="#a5d5de" stop-opacity="0"/></radialGradient></defs><path class="m" d="m111.51,107.81c.58-.58.9-1.36.9-2.18s-.32-1.6-.9-2.18l-34.01-34.01c-.58-.58-1.36-.9-2.18-.9s-1.6.32-2.18.9h-.01s-8.47-8.46-8.47-8.46c-1.98-1.98-1.17-6.63,0-8.94,0,0,0,0,0-.01,2.55-4.61,4.01-9.91,4.01-15.55,0-17.74-14.39-32.13-32.13-32.13S4.4,18.72,4.4,36.47s14.39,32.13,32.13,32.13c5.39,0,10.47-1.33,14.94-3.68.13-.04.29-.11.5-.21,2.31-1.17,6.96-1.98,8.94,0l8.47,8.47h-.01c-.58.59-.9,1.37-.9,2.2s.32,1.6.9,2.18l34.01,34.01c.58.58,1.36.9,2.18.9s1.6-.32,2.18-.9l.05-.05c.61.35,1.41.26,1.93-.26l1.46-1.46c.52-.52.61-1.32.26-1.93l.05-.05ZM36.53,62.94c-14.62,0-26.47-11.85-26.47-26.47s11.85-26.47,26.47-26.47,26.47,11.85,26.47,26.47-11.85,26.47-26.47,26.47Zm26.73-.46c-1.9-1.9-2.49-4.61-1.82-8.3.23-1.24.65-2.45,1.28-3.6,2.38-4.41,3.61-9.4,3.55-14.45-.18-16.2-13.51-29.38-29.71-29.4h-.02c-7.94,0-15.41,3.09-21.03,8.71-5.62,5.62-8.72,13.1-8.71,21.05.01,16.29,13.27,29.62,29.56,29.71.06,0,.12,0,.17,0,5.33,0,10.55-1.42,15.11-4.12.21-.12.48-.05.61.16.12.21.05.48-.16.61-4.7,2.78-10.08,4.24-15.56,4.24-.06,0-.12,0-.18,0-16.77-.1-30.43-13.83-30.44-30.6,0-8.19,3.18-15.89,8.97-21.68,5.78-5.78,13.47-8.97,21.65-8.97h.02c16.69.01,30.41,13.59,30.6,30.27.06,5.2-1.21,10.34-3.66,14.88-.58,1.07-.98,2.19-1.18,3.34-.62,3.38-.1,5.84,1.57,7.51l7.43,7.43-.63.63-7.43-7.43Zm47.47,44.55h-.01s0,.01,0,.01l-3.73,3.73h0s-.01.01-.01.01c0,0,0,0,0,0h0c-.37.37-.87.58-1.4.58s-1.03-.2-1.4-.58l-34.01-34.01c-.77-.77-.77-2.03,0-2.8l3.76-3.76s0,0,0,0h0c.37-.37.87-.58,1.4-.58s1.03.2,1.4.58l34.01,34.01c.37.37.58.87.58,1.4s-.2,1.03-.58,1.4Z"/><path class="o" d="m76.71,70.22c-.37-.37-.87-.58-1.4-.58s-1.03.2-1.4.58l-3.76,3.76c-.77.77-.77,2.03,0,2.8l34.01,34.01c.37.37.87.58,1.4.58s1.03-.2,1.4-.58l3.76-3.76c.37-.37.58-.87.58-1.4s-.2-1.03-.58-1.4l-34.01-34.01Z"/><circle class="k" cx="36.53" cy="36.47" r="25.04"/><circle class="n" cx="36.53" cy="36.47" r="23.31"/><circle class="l" cx="39.23" cy="25.75" r="15.99"/><path class="p" d="m70.69,69.91l-7.43-7.43c-1.9-1.9-2.49-4.61-1.82-8.3.23-1.24.65-2.45,1.28-3.6,2.38-4.41,3.61-9.4,3.55-14.45-.18-16.2-13.51-29.38-29.71-29.4h-.02c-7.94,0-15.41,3.09-21.03,8.71-5.62,5.62-8.72,13.1-8.71,21.05.01,16.29,13.27,29.62,29.56,29.71.06,0,.12,0,.17,0,5.33,0,10.55-1.42,15.11-4.12.21-.12.48-.05.61.16.12.21.05.48-.16.61-4.7,2.78-10.08,4.24-15.56,4.24-.06,0-.12,0-.18,0-16.77-.1-30.43-13.83-30.44-30.6,0-8.19,3.18-15.89,8.97-21.68,5.78-5.78,13.47-8.97,21.65-8.97h.02c16.69.01,30.41,13.59,30.6,30.27.06,5.2-1.21,10.34-3.66,14.88-.58,1.07-.98,2.19-1.18,3.34-.62,3.38-.1,5.84,1.57,7.51l7.43,7.43-.63.63Z"/></svg>