<?xml version="1.0" encoding="UTF-8"?><svg id="c" xmlns="http://www.w3.org/2000/svg" xmlns:xlink="http://www.w3.org/1999/xlink" viewBox="0 0 116.81 116.81"><defs><style>.f{fill:url(#e);}.f,.g,.h{stroke-width:0px;}.g{fill:#08232b;}.h{fill:url(#d);}</style><radialGradient id="d" cx="81.78" cy="59.16" fx="81.78" fy="59.16" r="31.16" gradientUnits="userSpaceOnUse"><stop offset="0" stop-color="#407788"/><stop offset=".23" stop-color="#548897"/><stop offset=".71" stop-color="#87b6c0"/><stop offset="1" stop-color="#aad4db"/></radialGradient><radialGradient id="e" cx="41.6" fx="41.6" xlink:href="#d"/></defs><polygon class="h" points="106.07 33.38 97.91 25.12 57.49 59.13 97.91 93.2 106.08 84.93 74.86 59 106.07 33.38"/><polygon class="f" points="65.89 33.38 57.74 25.12 17.31 59.13 57.74 93.2 65.9 84.93 34.68 59 65.89 33.38"/><path class="g" d="m69.29,33.56l-11.41-11.56-3.7,3.11-4.56-4.62L7.34,56.06l42.28,35.63,1.26-1.27,7,5.9,11.41-11.55-31-25.75,31.01-25.45Zm-3.39,51.37l-8.16,8.27-5.24-4.42,6.91-7-31.11-25.84,31.11-25.53-3.61-3.65,1.94-1.63,8.16,8.26-31.21,25.61,31.22,25.93Z"/><path class="g" d="m109.47,33.56l-11.41-11.56-3.7,3.11-4.56-4.62-42.28,35.57,42.28,35.63,1.26-1.27,7,5.9,11.41-11.55-31-25.75,31.01-25.45Zm-3.39,51.37l-8.16,8.27-5.24-4.42,6.91-7-31.11-25.84,31.11-25.53-3.61-3.65,1.94-1.63,8.16,8.26-31.21,25.61,31.22,25.93Z"/></svg>