<?xml version="1.0" encoding="UTF-8"?><svg id="c" xmlns="http://www.w3.org/2000/svg" xmlns:xlink="http://www.w3.org/1999/xlink" viewBox="0 0 116.81 116.81"><defs><style>.f{fill:url(#e);}.f,.g,.h{stroke-width:0px;}.h{fill:url(#d);}</style><radialGradient id="d" cx="57.19" cy="43.54" fx="57.19" fy="43.54" r="47.84" gradientUnits="userSpaceOnUse"><stop offset=".16" stop-color="#407788"/><stop offset=".22" stop-color="#4a8090"/><stop offset=".46" stop-color="#73a4b0"/><stop offset=".68" stop-color="#91bec7"/><stop offset=".87" stop-color="#a3ced5"/><stop offset="1" stop-color="#aad4db"/></radialGradient><radialGradient id="e" cx="55.98" cy="98.49" fx="55.98" fy="98.49" r="11.48" gradientUnits="userSpaceOnUse"><stop offset="0" stop-color="#407788"/><stop offset=".23" stop-color="#548897"/><stop offset=".71" stop-color="#87b6c0"/><stop offset="1" stop-color="#aad4db"/></radialGradient></defs><path class="g" d="m61.53,85.02h-11.1c-4.09,0-7.42,3.21-7.42,7.16v12.6c0,3.95,3.33,7.16,7.42,7.16h11.1c4.09,0,7.42-3.21,7.42-7.16v-12.6c0-3.95-3.33-7.16-7.42-7.16Zm4.67,19.76c0,2.44-2.09,4.42-4.67,4.42h-11.1c-2.58,0-4.67-1.98-4.67-4.42v-12.6c0-2.44,2.09-4.42,4.67-4.42h11.1c2.58,0,4.67,1.98,4.67,4.42v12.6Z"/><path class="g" d="m82.71,15.32c-5.57-6.78-14.22-10.4-25.02-10.46h-.28c-9.42,0-17.14,2.78-22.93,8.26-5.83,5.52-8.31,12.51-9.36,17.4-.49,2.28.07,4.62,1.53,6.44,1.47,1.82,3.65,2.86,5.98,2.86h9.42c3.58,0,6.66-2.45,7.48-5.95,1.16-4.95,3.48-7.06,7.76-7.06,5.67,0,6.86,4.09,6.86,7.53,0,4.16-1.12,8.02-6.55,13.32-10.65,10.33-14.61,18.22-14.61,29.1v1.16c0,2.38,1.94,4.31,4.31,4.31h17.31c2.38,0,4.31-1.94,4.31-4.31,0-5.75,1.9-9.84,7.01-15.08,9.95-10.04,13.48-17.3,13.48-27.73,0-4.34-.87-12.67-6.72-19.78Zm-8.71,45.58c-5.84,5.99-7.8,10.83-7.8,17.01,0,.87-.7,1.57-1.57,1.57h-17.31c-.87,0-1.57-.7-1.57-1.57v-1.16c0-9.97,3.64-17.29,13.77-27.13,5.69-5.55,7.39-10.03,7.39-15.29,0-5.71-3-10.27-9.61-10.27-6.26,0-9.18,3.83-10.43,9.18-.52,2.24-2.51,3.83-4.81,3.83h-9.42c-3.14,0-5.49-2.9-4.83-5.97,2.44-11.35,10.61-23.6,29.87-23.49,22.42.13,29.01,15.92,29.01,27.5,0,9.34-2.8,15.83-12.68,25.8Z"/><path class="h" d="m79.63,17.85c-4.86-5.92-12.25-8.94-21.96-9h-.25c-8.37,0-15.16,2.41-20.19,7.17-5.09,4.81-7.27,11-8.2,15.34-.23,1.09.03,2.22.74,3.09.7.87,1.75,1.37,2.87,1.37h9.42c1.72,0,3.2-1.18,3.59-2.86,1.58-6.73,5.5-10.14,11.65-10.14,6.7,0,10.86,4.41,10.86,11.52,0,6.12-2.25,10.81-7.76,16.19-9.76,9.47-13.39,16.58-13.39,26.23v1.16c0,.18.14.32.32.32h17.31c.18,0,.32-.14.32-.32,0-6.75,2.36-11.94,8.16-17.89,9.33-9.41,12.32-15.47,12.32-24.92,0-3.8-.75-11.1-5.81-17.25Z"/><path class="f" d="m61.53,89.02h-11.1c-1.89,0-3.42,1.42-3.42,3.17v12.6c0,1.75,1.54,3.17,3.42,3.17h11.1c1.89,0,3.42-1.42,3.42-3.17v-12.6c0-1.75-1.54-3.17-3.42-3.17Z"/></svg>