<?xml version="1.0" encoding="UTF-8"?><svg id="f" xmlns="http://www.w3.org/2000/svg" xmlns:xlink="http://www.w3.org/1999/xlink" viewBox="0 0 116.81 116.81"><defs><style>.i{fill:url(#g);}.i,.j,.k{stroke-width:0px;}.j{fill:#08232b;}.k{fill:url(#h);}</style><linearGradient id="g" x1="52.45" y1="39.94" x2="62.47" y2="39.94" gradientUnits="userSpaceOnUse"><stop offset="0" stop-color="#407788"/><stop offset=".08" stop-color="#4b8090"/><stop offset=".23" stop-color="#689aa7"/><stop offset=".42" stop-color="#97c4cc"/><stop offset=".49" stop-color="#aad4db"/><stop offset=".63" stop-color="#85b3be"/><stop offset=".85" stop-color="#538897"/><stop offset=".96" stop-color="#407788"/></linearGradient><radialGradient id="h" cx="57.62" cy="64.31" fx="57.62" fy="64.31" r="47.92" gradientUnits="userSpaceOnUse"><stop offset="0" stop-color="#407788"/><stop offset=".4" stop-color="#417889"/><stop offset=".55" stop-color="#487e8e"/><stop offset=".65" stop-color="#548898"/><stop offset=".74" stop-color="#6597a5"/><stop offset=".81" stop-color="#7babb6"/><stop offset=".87" stop-color="#95c2cb"/><stop offset=".91" stop-color="#aad4db"/></radialGradient></defs><path class="j" d="m62.85,6.71c-.48-.21-1.02-.32-1.58-.32h-7.63c-2.21,0-4.02,1.8-4.02,4.02v59.09c0,.93.32,1.78.85,2.46.81,1.4,3.44,3,4.78,3h8.55c1.61,0,2.92-1.22,2.92-2.72V10.52c0-1.4-2.28-3.54-3.88-3.81Z"/><rect class="i" x="52.45" y="9.21" width="10.02" height="61.47" rx="1.19" ry="1.19"/><path class="j" d="m90.27,33.82c-1.08-.79-2.22-1.5-3.41-2.15-5.42-3.09-11.35-2.76-14.41-.82-1.49.95-2.26,2.23-2.15,3.63.09,1.2.9,2.94,4.21,4.39,13.54,7,15.52,20.52,12.86,30.86-3.11,12.08-13.78,24.88-29.87,24.44h-.04s-.04,0-.04,0c-.28,0-.55.01-.82.01-10.56,0-18.71-5.74-23.84-13.12-7.33-13.81-5.76-32.11,10.52-40.49,5.65-2.46,3.52-7.88-.97-9.82-3.1-1.85-8.92-2.12-14.25.92-8.76,4.71-14.41,13.32-15.9,24.24-1.94,14.2,3.34,30.05,13.14,39.46,5.06,5.18,10.85,8.92,17.15,11.13,5.97,2.83,12.26,4.06,18.48,3.93,10.87.23,21.99-3.69,31.16-13.08,15.96-15.3,19.16-51.15-1.82-63.52Zm-2.63,59.52l-.03.03c-8.1,8.3-18.19,12.67-29.23,12.67-.3,0-.59,0-.89,0h-.03s-.03,0-.03,0c-11.38.24-21.8-4.14-30.12-12.66l-.03-.03c-1.36-1.31-2.63-2.75-3.79-4.29,0,0,0,0,0,0-.01-.02-.03-.04-.04-.06-.15-.2-.3-.41-.45-.62-.07-.1-.14-.19-.21-.29-.15-.21-.29-.42-.43-.63-.07-.1-.13-.19-.2-.29-.14-.22-.29-.43-.43-.65-.05-.08-.11-.17-.16-.26-.51-.82-1-1.65-1.46-2.51-.01-.02-.02-.04-.04-.06-.13-.24-.25-.48-.38-.72-.05-.1-.11-.21-.16-.31-.11-.23-.22-.45-.33-.68-.06-.12-.12-.24-.17-.36-.11-.22-.21-.45-.31-.67-.06-.13-.11-.26-.17-.38-.1-.23-.2-.45-.29-.68-.05-.12-.1-.24-.15-.37-.32-.79-.63-1.59-.91-2.4-.05-.14-.1-.28-.15-.42-.07-.21-.14-.43-.21-.64-.05-.17-.11-.33-.16-.5-.06-.21-.13-.41-.19-.62-.05-.18-.1-.35-.15-.53-.06-.2-.11-.4-.17-.61-.05-.19-.1-.38-.15-.56-.05-.2-.1-.39-.15-.59-.05-.21-.1-.42-.15-.63-.04-.18-.08-.35-.12-.53-.08-.37-.15-.74-.22-1.12-.03-.16-.06-.32-.08-.48-.04-.24-.08-.47-.12-.71-.03-.17-.05-.35-.08-.52-.03-.22-.07-.45-.1-.67-.02-.18-.05-.35-.07-.53-.03-.23-.05-.45-.08-.68-.02-.17-.04-.34-.05-.51-.02-.24-.04-.48-.06-.73-.01-.16-.03-.31-.04-.47-.02-.31-.04-.61-.06-.92,0-.09-.01-.18-.02-.27-.02-.39-.03-.78-.04-1.18,0-.13,0-.26,0-.39,0-.27,0-.53,0-.8,0-.16,0-.31,0-.47,0-.24.01-.49.02-.73,0-.16.01-.32.02-.49.01-.24.03-.48.04-.72.01-.16.02-.32.03-.48.02-.25.04-.51.07-.76.01-.14.03-.28.04-.42.04-.35.08-.7.13-1.04,0-.04,0-.08.01-.12,1.37-10.01,6.5-17.87,14.45-22.14l.03-.02c4.94-2.83,9.69-2.05,11.52-.89.54.34.87.74.85,1.03-.03.44-.73,1.24-2.57,2.04l-.08.04c-6.52,3.36-11.24,8.54-13.65,14.99-2.17,5.83-2.42,12.44-.7,19.1,1.88,7.29,5.95,13.96,11.47,18.78,3.37,2.94,7.14,5.08,11.15,6.37.07.02.13.04.2.06.17.05.34.1.5.15.05.01.1.03.15.04.21.06.43.12.64.18,0,0,0,0,.01,0,.91.24,1.84.44,2.77.59.01,0,.02,0,.03,0,.22.04.45.07.67.1.01,0,.02,0,.04,0,.23.03.45.06.68.09,0,0,.01,0,.02,0,1.42.16,2.86.22,4.31.19,7.79.2,15.11-2.48,21.18-7.78,5.52-4.82,9.59-11.49,11.47-18.78.75-2.92,1.13-5.82,1.13-8.66,0-3.64-.61-7.17-1.83-10.45-.35-.93-.74-1.83-1.18-2.71,0,0,0,0,0,0-2.62-5.2-6.88-9.41-12.46-12.29l-.08-.04c-.18-.08-.34-.16-.5-.23,0,0,0,0,0,0-.04-.02-.08-.04-.12-.06-.01,0-.02-.01-.04-.02-.08-.04-.16-.08-.24-.13-.01,0-.03-.01-.04-.02-.08-.04-.15-.08-.22-.13,0,0-.02-.01-.03-.02-.08-.05-.15-.09-.22-.14,0,0,0,0,0,0-.29-.19-.52-.37-.69-.54,0,0,0,0-.01-.01-.04-.04-.07-.08-.11-.11,0,0,0-.01-.01-.02-.03-.04-.06-.07-.09-.1,0,0,0-.01-.01-.02-.03-.03-.05-.07-.07-.1,0,0,0,0,0-.01-.02-.03-.04-.06-.06-.1,0,0,0,0,0-.01-.02-.03-.03-.06-.04-.09,0,0,0,0,0,0-.02-.06-.04-.12-.04-.18,0,0,0,0,0,0,0,0,0,0,0,0-.02-.29.3-.68.85-1.03,1.83-1.16,6.57-1.94,11.52.89l.03.02c7.95,4.27,13.09,12.13,14.45,22.14,1.82,13.35-3.13,28.24-12.32,37.05Z"/><path class="k" d="m99.96,56.28c-1.37-10.01-6.5-17.87-14.45-22.14l-.03-.02c-4.94-2.83-9.69-2.05-11.52-.89-.54.34-.87.74-.85,1.03.03.44.73,1.24,2.57,2.04l.08.04c6.52,3.36,11.24,8.54,13.65,14.99,2.17,5.83,2.42,12.44.7,19.1-1.88,7.29-5.95,13.96-11.47,18.78-6.07,5.3-13.39,7.98-21.18,7.78-7.78.21-15.11-2.48-21.18-7.78-5.52-4.82-9.59-11.49-11.47-18.78-1.72-6.67-1.47-13.27.7-19.1,2.4-6.44,7.12-11.63,13.65-14.99l.08-.04c1.84-.8,2.53-1.6,2.57-2.04.02-.29-.3-.68-.85-1.03-1.83-1.16-6.57-1.94-11.52.89l-.03.02c-7.95,4.27-13.09,12.13-14.45,22.14-1.82,13.35,3.13,28.24,12.32,37.05l.03.03c8.32,8.52,18.74,12.9,30.12,12.66h.03s.03,0,.03,0c.3,0,.59,0,.89,0,11.04,0,21.13-4.37,29.23-12.67l.03-.03c9.19-8.81,14.14-23.7,12.32-37.05Z"/></svg>