<?xml version="1.0" encoding="UTF-8"?><svg id="b" xmlns="http://www.w3.org/2000/svg" xmlns:xlink="http://www.w3.org/1999/xlink" viewBox="0 0 116.81 116.81"><defs><style>.f{fill:url(#c);}.f,.g,.h,.i,.j{stroke-width:0px;}.g{fill:#a3c7d3;}.h{fill:#daf1f7;}.i{fill:#08232b;}.j{fill:url(#d);}</style><radialGradient id="c" cx="58.4" cy="58.4" fx="58.4" fy="58.4" r="68.5" gradientUnits="userSpaceOnUse"><stop offset="0" stop-color="#407788"/><stop offset="1" stop-color="#aad4db"/></radialGradient><radialGradient id="d" cx="58.4" cy="58.4" fx="58.4" fy="58.4" r="68.5" xlink:href="#c"/></defs><path class="i" d="m112.28,53.02l-.37-3.77-3.57-1.27-7.71-2.74c-.79-2.55-1.82-5.02-3.06-7.38l3.51-7.39,1.62-3.42-2.4-2.93c-2.28-2.78-4.84-5.35-7.62-7.62l-2.93-2.4-3.42,1.62-7.39,3.51c-2.37-1.25-4.84-2.27-7.38-3.06l-2.74-7.71-1.27-3.57-3.77-.37c-1.79-.18-3.6-.27-5.39-.27s-3.6.09-5.39.27l-3.77.37-1.27,3.57-2.74,7.71c-2.55.79-5.02,1.82-7.38,3.06l-7.39-3.51-3.42-1.62-2.93,2.4c-2.78,2.28-5.35,4.84-7.62,7.62l-2.4,2.93,1.62,3.42,3.51,7.39c-1.25,2.37-2.27,4.84-3.06,7.38l-7.71,2.74-3.57,1.27-.37,3.77c-.18,1.79-.27,3.6-.27,5.39s.09,3.6.27,5.39l.37,3.77,3.57,1.27,7.71,2.74c.79,2.55,1.82,5.02,3.06,7.38l-3.51,7.39-1.62,3.42,2.4,2.93c2.28,2.78,4.84,5.35,7.62,7.62l2.93,2.4,3.42-1.62,7.39-3.51c2.37,1.25,4.84,2.27,7.38,3.06l2.74,7.71,1.27,3.57,3.77.37c1.79.18,3.6.27,5.39.27s3.6-.09,5.39-.27l3.77-.37,1.27-3.57,2.74-7.71c2.55-.79,5.02-1.82,7.38-3.06l7.39,3.51,3.42,1.62,2.93-2.4c2.78-2.28,5.35-4.84,7.62-7.62l2.4-2.93-1.62-3.42-3.51-7.39c1.25-2.37,2.27-4.84,3.06-7.38l7.71-2.74,3.57-1.27.37-3.77c.18-1.79.27-3.6.27-5.39s-.09-3.6-.27-5.39Zm-4.05,10.37l-.12,1.2-10.82,3.85c-.94,3.64-2.38,7.12-4.3,10.37l4.93,10.38-.76.93c-2.11,2.57-4.48,4.95-7.05,7.05l-.93.76-10.38-4.93c-3.25,1.92-6.73,3.36-10.37,4.3l-3.85,10.82-1.2.12c-1.65.16-3.33.25-4.98.25s-3.33-.08-4.98-.25l-1.2-.12-3.85-10.82c-3.64-.94-7.12-2.38-10.37-4.3l-10.38,4.93-.93-.76c-2.57-2.11-4.95-4.48-7.05-7.05l-.76-.93,4.93-10.38c-1.92-3.25-3.36-6.73-4.3-10.37l-10.82-3.85-.12-1.2c-.16-1.66-.25-3.33-.25-4.98s.08-3.33.25-4.98l.12-1.2,10.82-3.85c.94-3.64,2.38-7.12,4.3-10.37l-4.93-10.38.76-.93c2.11-2.57,4.48-4.95,7.05-7.05l.93-.76,10.38,4.93c3.25-1.92,6.73-3.36,10.37-4.3l3.85-10.82,1.2-.12c1.66-.16,3.33-.25,4.98-.25s3.33.08,4.98.25l1.2.12,3.85,10.82c3.64.94,7.12,2.38,10.37,4.3l10.37-4.93.93.76c2.57,2.11,4.94,4.48,7.05,7.05l.76.93-4.93,10.38c1.92,3.25,3.36,6.73,4.3,10.37l10.82,3.85.12,1.2c.16,1.66.25,3.33.25,4.98s-.08,3.33-.25,4.98Z"/><path class="f" d="m58.4,34.72c-13.06,0-23.68,10.62-23.68,23.68s10.62,23.68,23.68,23.68,23.68-10.62,23.68-23.68-10.62-23.68-23.68-23.68Zm0,46.28c-12.48,0-22.6-10.12-22.6-22.6s10.12-22.6,22.6-22.6,22.6,10.12,22.6,22.6-10.12,22.6-22.6,22.6Z"/><path class="j" d="m106.34,63.2c.16-1.58.24-3.18.24-4.8s-.08-3.22-.24-4.8l-10.65-3.79c-.97-4.21-2.63-8.15-4.85-11.7l4.86-10.21c-2.03-2.48-4.31-4.75-6.79-6.79l-10.21,4.86c-3.55-2.23-7.49-3.89-11.7-4.85l-3.79-10.65c-1.58-.16-3.18-.24-4.8-.24s-3.22.08-4.8.24l-3.79,10.65c-4.21.97-8.15,2.63-11.7,4.85l-10.21-4.86c-2.48,2.03-4.76,4.31-6.79,6.79l4.86,10.21c-2.23,3.55-3.89,7.49-4.85,11.7l-10.65,3.79c-.16,1.58-.24,3.18-.24,4.8s.08,3.22.24,4.8l10.65,3.79c.97,4.21,2.63,8.15,4.85,11.7l-4.86,10.21c2.03,2.48,4.31,4.75,6.79,6.79l10.21-4.86c3.55,2.23,7.49,3.89,11.7,4.85l3.79,10.65c1.58.16,3.18.24,4.8.24s3.22-.08,4.8-.24l3.79-10.65c4.21-.97,8.15-2.63,11.7-4.85l10.21,4.86c2.48-2.03,4.75-4.31,6.79-6.79l-4.86-10.21c2.23-3.55,3.89-7.49,4.85-11.7l10.65-3.79Zm-47.94,19.97c-13.66,0-24.77-11.11-24.77-24.77s11.11-24.77,24.77-24.77,24.77,11.11,24.77,24.77-11.11,24.77-24.77,24.77Z"/><path class="g" d="m58.4,35.81c-12.48,0-22.6,10.12-22.6,22.6s10.12,22.6,22.6,22.6,22.6-10.12,22.6-22.6-10.12-22.6-22.6-22.6Zm0,34.39c-6.5,0-11.79-5.29-11.79-11.79s5.29-11.79,11.79-11.79,11.79,5.29,11.79,11.79-5.29,11.79-11.79,11.79Z"/><path class="h" d="m58.4,83.17c-13.66,0-24.77-11.11-24.77-24.77s11.11-24.77,24.77-24.77,24.77,11.11,24.77,24.77-11.11,24.77-24.77,24.77Zm0-48.45c-13.06,0-23.68,10.62-23.68,23.68s10.62,23.68,23.68,23.68,23.68-10.62,23.68-23.68-10.62-23.68-23.68-23.68Z"/><path class="i" d="m58.4,49.87c4.72,0,8.54,3.82,8.54,8.54s-3.82,8.54-8.54,8.54-8.54-3.82-8.54-8.54,3.82-8.54,8.54-8.54m0-3.26c-6.5,0-11.79,5.29-11.79,11.79s5.29,11.79,11.79,11.79,11.79-5.29,11.79-11.79-5.29-11.79-11.79-11.79h0Z"/></svg>